<svg xmlns="http://www.w3.org/2000/svg" xmlns:xlink="http://www.w3.org/1999/xlink" viewBox="0 0 1488.13 2324.97"><defs><style>.cls-1{isolation:isolate;}.cls-2{fill:#7e549f;}.cls-3{fill:url(#linear-gradient);}.cls-4{fill:url(#linear-gradient-2);}.cls-5{fill:#d8dee8;opacity:0.5;}.cls-6{fill:#bfc8d6;}.cls-7{fill:url(#linear-gradient-3);}.cls-12,.cls-8{opacity:0.3;mix-blend-mode:multiply;}.cls-8{fill:url(#linear-gradient-4);}.cls-9{fill:#fff;mix-blend-mode:soft-light;}.cls-10{fill:url(#linear-gradient-5);}.cls-11{fill:url(#linear-gradient-6);}.cls-12{fill:url(#linear-gradient-7);}</style><linearGradient id="linear-gradient" x1="732.86" y1="3613.38" x2="751.16" y2="1289.1" gradientUnits="userSpaceOnUse"><stop offset="0" stop-color="#311944"/><stop offset="1" stop-color="#893976"/></linearGradient><linearGradient id="linear-gradient-2" x1="866.47" y1="1807.88" x2="470.27" y2="2915.43" xlink:href="#linear-gradient"/><linearGradient id="linear-gradient-3" x1="742.61" y1="1518.37" x2="742.6" y2="1518.84" gradientUnits="userSpaceOnUse"><stop offset="0" stop-color="#ffc444"/><stop offset="1" stop-color="#f36f56"/></linearGradient><linearGradient id="linear-gradient-4" x1="380.56" y1="746.64" x2="1102.49" y2="746.64" xlink:href="#linear-gradient-3"/><linearGradient id="linear-gradient-5" x1="803.55" y1="1199.73" x2="712.32" y2="-88.91" xlink:href="#linear-gradient"/><linearGradient id="linear-gradient-6" x1="840.87" y1="-229.88" x2="475.69" y2="790.99" xlink:href="#linear-gradient"/><linearGradient id="linear-gradient-7" x1="750.43" y1="1696.83" x2="731.27" y2="3262.64" xlink:href="#linear-gradient-3"/></defs><g class="cls-1"><g id="Layer_2" data-name="Layer 2"><g id="Illustration"><path class="cls-2" d="M1095.81,749.22c.22,19-160.22,36.48-359.18,39.1C536.74,791,374,777.58,373.89,758.45s162.46-36.64,362.19-39.12C934.9,716.87,1095.59,730.25,1095.81,749.22Z"/><path class="cls-3" d="M1486.89,2129.13,1105.47,2141c-105.34-6.08-226.49-4.18-355.7-.44-129.61,3.75-251.8,9.46-358.48,21.76L0,2173.85v79.45H.05a.36.36,0,0,0,0,.23c0,50.76,337.93,81.34,751.19,68.53,409.35-12.7,737.72-65.95,736.94-115.82,0-.15-.07-3-.07-3Z"/><path class="cls-4" d="M1486.92,2130.07c.77,49.78-327.34,100.07-736.36,112.38C337.64,2254.88,0,2223.93,0,2173.26s337-101,749.13-112.58C1157.38,2049.25,1486.14,2080.34,1486.92,2130.07Z"/><path class="cls-5" d="M1006.31,957.28,817.25,1106l192.94,143.58c215.4,160,343.48,413.41,347.37,686.46l2.68,187.11c0,3.5-3.08,6.49-8.37,10l-582.66-13.7L730,2120.55l-591.58,47.82c-5.5-3.25-7.27-6.14-7.28-9.69l-.26-189.85c-.38-277,126.69-539.34,343.25-709.27l191-150.19L472.26,965.45C255.47,804.5,128.89,551.36,128.52,282.5l-.26-192.84,587.28,24.91,38.74-.21,576.84-30.92,2.72,190.16C1337.62,538.7,1216.84,791.61,1006.31,957.28Z"/><path class="cls-6" d="M1359.48,2123.08c0,3.5-2.69,7-8,10.52-47.14,31.07-298,61.18-602.59,70.22-306.78,9.09-563-6.28-611.94-35-5.5-3.25-8.37-6.64-8.38-10.19,0-35.06,278.32-71.29,619.33-80.9C1086.26,2068.24,1359,2088.53,1359.48,2123.08Z"/><polygon class="cls-2" points="759.2 1559.32 727.76 1560.02 723.85 1050.84 755.12 1050.33 759.2 1559.32"/><path class="cls-2" d="M738.83,751.26l-362.49,4.66,18.87,31.37s134.7,192.78,346.24,296.31c208.84-110,338.8-305.27,338.8-305.27l18.06-31.69Z"/><path class="cls-7" d="M742.6,1518.51c-.13,0,0-.09,0-.09S742.74,1518.47,742.6,1518.51Z"/><path class="cls-8" d="M1102.49,742c.22,19-160.22,36.48-359.19,39.1-199.88,2.64-362.66-10.74-362.74-29.87S543,714.6,742.76,712.12C941.58,709.66,1102.27,723,1102.49,742Z"/><path class="cls-2" d="M1251.58,2126C1072.37,2166,793,2178.33,752.31,2179.52l-4.52.14-4.52.13c-21.62.63-111,2.11-217.69-1.11-94-2.91-201.27-9.36-287.11-23.33-.18,0,.43-.65.43-.7v-22.5c3.85-66.29,13.64-257.87,47-299.23,39.78-49.23,443.51-305.29,456.92-314.27C756.4,1527,1160,1763.1,1199.75,1809.86c10.68,12.55,19.26,40.67,26.21,74.82,7.91,38.78,13.59,85.83,17.58,128.06C1249.4,2074.52,1251.58,2126,1251.58,2126Z"/><path class="cls-9" d="M394.79,372.79c-4.28-119.53,6.07-206.32,6.07-206.32S368.36,91,254,125.83c-29.9,88.25-41.62,173-40,248.49Z"/><path class="cls-9" d="M397.56,426l-180.37,1.64c40.36,397,428,624.44,428,624.44l92-1.5C483.23,951.46,413,648.3,397.56,426Z"/><path class="cls-9" d="M409.13,2097.53l-163.08,4.62c-21.12-73.08-29.67-146.42-28.6-210.74l183.73-4.75C397.92,2006,408.65,2093,409.13,2097.53Z"/><path class="cls-9" d="M403.53,1831.68l-183.07,4.62c38.74-411.49,425.66-653.95,425.66-653.95l92.09-1.64C485,1293.51,417.24,1603.25,403.53,1831.68Z"/><path class="cls-10" d="M1455,83.76,1081.63,86C978.54,77.79,860,76.65,733.53,77.29c-126.81.64-246.37,3.23-350.75,12.57L0,91.93v72.91H.05s0,1.33,0,1.48c0,48.55,330.56,86.14,734.89,83.28,400.59-2.83,722-44.06,721.27-91.81,0-.14,0-.65-.05-.65Z"/><path class="cls-11" d="M1455,83.23c.75,47.67-320.42,88.33-720.69,90.81C330.29,176.54,0,139.24,0,90.76S329.67,1.74,732.93.05C1132.46-1.61,1454.24,35.61,1455,83.23Z"/><path class="cls-12" d="M1251.58,2126C1072.37,2166,793,2178.33,752.31,2179.52l-4.52.14-4.52.13c-21.62.63-111,2.11-217.69-1.11-94-2.91-201.27-9.36-287.11-23.33-.18,0,.43-.65.43-.7v-.14c0-1.15-.64-9.26-.08-22.28,100.92.1,310.88-7.3,401.94-66.43,121.43-78.87,222.7-84,355.49-62.48,109,17.65,187.79-43.31,229.68-118.64,7.9,38.79,13.58,85.83,17.62,128C1249.4,2074.52,1251.58,2126,1251.58,2126Z"/></g></g></g></svg>