<svg xmlns="http://www.w3.org/2000/svg" viewBox="0 0 120.6 127.21"><defs><style>.cls-1{isolation:isolate;}.cls-2{fill:#141f23;opacity:0.15;}.cls-3{fill:#7e549f;}.cls-4,.cls-5{fill:#e0e0e0;}.cls-4{opacity:0.7;mix-blend-mode:multiply;}.cls-5{opacity:0.2;mix-blend-mode:screen;}.cls-6{opacity:0.9;}.cls-7{fill:#d4869a;}.cls-8{fill:#383b40;}.cls-9{fill:#d88288;}</style></defs><g class="cls-1"><g id="Layer_2" data-name="Layer 2"><g id="OBJECTS"><ellipse class="cls-2" cx="60.3" cy="114.79" rx="45.48" ry="12.42"/><ellipse class="cls-3" cx="60.3" cy="55.2" rx="60.3" ry="55.2"/><path class="cls-4" d="M13,44.62a51.82,51.82,0,0,1,9.93-30.36C10.77,23.91,3,38.13,3,54,3,83.1,28.8,106.68,60.57,106.68A60.81,60.81,0,0,0,94.52,96.47a65.09,65.09,0,0,1-21,3.52C40.07,100,13,75.2,13,44.62Z"/><path class="cls-5" d="M107.9,65.08A51.85,51.85,0,0,1,98,95.44c12.16-9.66,19.88-23.87,19.88-39.76C117.84,26.59,92.08,3,60.31,3A60.7,60.7,0,0,0,26.37,13.23,65,65,0,0,1,47.42,9.71C80.82,9.71,107.9,34.5,107.9,65.08Z"/><g class="cls-6"><path class="cls-7" d="M21.4,69.47c-3.19-1.59-13.76-.8-14.21,1.42s1,6.3,8.14,5.67S25.88,71.7,21.4,69.47Z"/></g><g class="cls-6"><path class="cls-7" d="M114.17,69.47c-3.19-1.59-13.76-.8-14.21,1.42s1,6.3,8.13,5.67S118.65,71.7,114.17,69.47Z"/></g><ellipse class="cls-8" cx="60.3" cy="68.63" rx="8.07" ry="8.88"/><ellipse class="cls-9" cx="60.26" cy="72.34" rx="7.33" ry="5.18"/><path class="cls-8" d="M30.57,52.5a2,2,0,0,0-2.75-.25l-6,5-6-5a1.95,1.95,0,1,0-2.48,3l5.44,4.5-5.44,4.51a1.95,1.95,0,1,0,2.48,3l6-5,6,5a2,2,0,0,0,1.24.45,1.95,1.95,0,0,0,1.25-3.45l-5.44-4.51,5.44-4.5A2,2,0,0,0,30.57,52.5Z"/><path class="cls-8" d="M102.94,59.75l5.44-4.5a1.95,1.95,0,1,0-2.48-3l-6,5-6-5a1.95,1.95,0,1,0-2.49,3l5.44,4.5-5.44,4.51a1.95,1.95,0,0,0,1.24,3.45,2,2,0,0,0,1.25-.45l6-5,6,5a1.95,1.95,0,1,0,2.48-3Z"/></g></g></g></svg>