<svg xmlns="http://www.w3.org/2000/svg" xmlns:xlink="http://www.w3.org/1999/xlink" viewBox="0 0 208.94 48.21"><defs><style>.cls-1{fill:url(#Orange_Yellow);}.cls-2{fill:url(#Orange_Yellow-2);}.cls-3{fill:url(#Orange_Yellow-3);}.cls-4{fill:url(#Orange_Yellow-4);}.cls-5{fill:url(#Orange_Yellow-5);}.cls-6{fill:url(#Orange_Yellow-6);}.cls-7{fill:url(#Orange_Yellow-7);}.cls-8{fill:url(#Orange_Yellow-8);}.cls-9{fill:url(#Orange_Yellow-9);}</style><linearGradient id="Orange_Yellow" y1="20.32" x2="42.1" y2="20.32" gradientUnits="userSpaceOnUse"><stop offset="0" stop-color="#fff33b"/><stop offset="0.04" stop-color="#fee72e"/><stop offset="0.12" stop-color="#fed51b"/><stop offset="0.2" stop-color="#fdca10"/><stop offset="0.28" stop-color="#fdc70c"/><stop offset="0.67" stop-color="#f3903f"/><stop offset="0.89" stop-color="#ed683c"/><stop offset="1" stop-color="#e93e3a"/></linearGradient><linearGradient id="Orange_Yellow-2" x1="38.17" y1="31.13" x2="63" y2="31.13" xlink:href="#Orange_Yellow"/><linearGradient id="Orange_Yellow-3" x1="60.16" y1="23.83" x2="85.15" y2="23.83" xlink:href="#Orange_Yellow"/><linearGradient id="Orange_Yellow-4" x1="84.91" y1="25" x2="102.97" y2="25" xlink:href="#Orange_Yellow"/><linearGradient id="Orange_Yellow-5" x1="105.19" y1="25.08" x2="127" y2="25.08" xlink:href="#Orange_Yellow"/><linearGradient id="Orange_Yellow-6" x1="128.67" y1="24.02" x2="146.66" y2="24.02" xlink:href="#Orange_Yellow"/><linearGradient id="Orange_Yellow-7" x1="144.07" y1="24.95" x2="165.85" y2="24.95" xlink:href="#Orange_Yellow"/><linearGradient id="Orange_Yellow-8" x1="167.1" y1="24.61" x2="187.46" y2="24.61" xlink:href="#Orange_Yellow"/><linearGradient id="Orange_Yellow-9" x1="189.6" y1="17.91" x2="208.94" y2="17.91" xlink:href="#Orange_Yellow"/></defs><g id="Layer_2" data-name="Layer 2"><g id="Layer_1-2" data-name="Layer 1"><path class="cls-1" d="M20.31,36.21l-2-26.88A65.8,65.8,0,0,1,15.94,22a32.4,32.4,0,0,1-4,9.09,14.46,14.46,0,0,1-4.54,4.5,9.43,9.43,0,0,1-4.6,1.3,3.43,3.43,0,0,1-2.1-.56A1.68,1.68,0,0,1,0,35a1.57,1.57,0,0,1,.54-1.18,1.92,1.92,0,0,1,1.36-.5,8,8,0,0,1,1.72.27,7.34,7.34,0,0,0,1.69.26,4.36,4.36,0,0,0,2.45-.87,13.55,13.55,0,0,0,3.8-4.65,38.33,38.33,0,0,0,3.37-9.35,67,67,0,0,0,1.86-11.7,14.37,14.37,0,0,0-9.21,2.82,6.39,6.39,0,0,0-2.81,5A5.13,5.13,0,0,0,6.1,18a2.81,2.81,0,0,1,.71,1.5,1.45,1.45,0,0,1-.41,1.07,1.29,1.29,0,0,1-1,.43,2.11,2.11,0,0,1-1.71-1.1,6,6,0,0,1-1-3.49A9.09,9.09,0,0,1,4.6,11,11.92,11.92,0,0,1,9.89,7a21.51,21.51,0,0,1,7.92-1.39,14.25,14.25,0,0,0,3.92-.44c-.05,1.49-.07,2.3-.07,2.41s0,.5.07,1l1.45,19A116.53,116.53,0,0,1,35,10.28,28.76,28.76,0,0,1,42.1,3.77c-1.16,3.16-2.39,7.32-3.72,12.5l-3.06,12c-.16.67-.39,1.64-.67,2.92L34,33.83a15.23,15.23,0,0,0,3.47.45,13.55,13.55,0,0,0,2.73-.3l-.33,1.45a12.11,12.11,0,0,1-2,.22A27.15,27.15,0,0,1,35,35.43a23.1,23.1,0,0,0-2.79-.2,10.4,10.4,0,0,0-3,.5,84.65,84.65,0,0,0,2.88-9.66l1.92-7.63a39.69,39.69,0,0,1,2.13-6.79A99,99,0,0,0,30,20q-3.36,4.89-7.51,12.38Z"/><path class="cls-2" d="M44,19.24l-.79-1.18L45,16.82a35.31,35.31,0,0,1,3.79-2.37,2.7,2.7,0,0,1,1.15-.3,1.32,1.32,0,0,1,1,.6,23.47,23.47,0,0,1,3.69,7.46,29.94,29.94,0,0,1,1.5,9.12c0,.38,0,1,0,1.74,2.81-5.17,4.22-9.29,4.22-12.33a10.45,10.45,0,0,0-.43-2.52,11.68,11.68,0,0,1-.45-2.5,1.69,1.69,0,0,1,.46-1.2,1.58,1.58,0,0,1,1.16-.47,1.69,1.69,0,0,1,1.41.67A3,3,0,0,1,63,16.64a28.4,28.4,0,0,1-1.47,8A51.46,51.46,0,0,1,56.9,35a41.94,41.94,0,0,1-5.76,8.21,18.13,18.13,0,0,1-5,3.84,10.66,10.66,0,0,1-4.61,1.17A4.18,4.18,0,0,1,39,47.59a1.76,1.76,0,0,1-.84-1.46,1.63,1.63,0,0,1,.65-1.28,2.67,2.67,0,0,1,1.75-.54,11.24,11.24,0,0,1,2.32.33A12.37,12.37,0,0,0,45,45a5.49,5.49,0,0,0,3.21-1.27,13.55,13.55,0,0,0,3.69-4.17,9.92,9.92,0,0,0,1.35-4.88,41.45,41.45,0,0,0-1-8.33,19.66,19.66,0,0,0-2.85-7.43,2.52,2.52,0,0,0-2-1.32A7,7,0,0,0,44,19.24Z"/><path class="cls-3" d="M85.15,5.69a85,85,0,0,0-3.86,11.25l-3.72,13q-1.77,6.24-4.93,9.14a10.11,10.11,0,0,1-7,2.92,6.57,6.57,0,0,1-4-1.12,3.11,3.11,0,0,1-1.52-2.47,1.55,1.55,0,0,1,.45-1.1,1.38,1.38,0,0,1,1-.47,2.69,2.69,0,0,1,1.82,1,8.88,8.88,0,0,0,2.07,1.75,4.29,4.29,0,0,0,1.9.52,2.83,2.83,0,0,0,1.54-.4,5.55,5.55,0,0,0,1.88-2,74.76,74.76,0,0,0,3.29-9.23q2.1-6.54,4.07-13.58l2.17-7.59-1.2,0a10.78,10.78,0,0,0-6.56,1.9q-2.6,1.92-2.6,4a3.28,3.28,0,0,0,.65,1.73,2.84,2.84,0,0,1,.6,1.42,1.52,1.52,0,0,1-.49,1.13,1.56,1.56,0,0,1-1.16.49,1.7,1.7,0,0,1-1.43-.77,3.8,3.8,0,0,1-.56-2.27,7.7,7.7,0,0,1,2-5.11,11.24,11.24,0,0,1,5.34-3.4,23.43,23.43,0,0,1,6.8-.73Z"/><path class="cls-4" d="M97.28,14.15a5.1,5.1,0,0,1,4.07,1.94A8.25,8.25,0,0,1,103,21.51a14.62,14.62,0,0,1-3.89,9.94q-3.9,4.41-8.23,4.4a5.64,5.64,0,0,1-4.31-1.74,6.72,6.72,0,0,1-1.63-4.77,17,17,0,0,1,3-9.68Q91.67,14.16,97.28,14.15ZM95.16,16q-2.11,0-4.1,3c-1.32,2-2,4.81-2,8.37a9.26,9.26,0,0,0,1.23,5.12,2.74,2.74,0,0,0,2.39,1.37q2.1,0,3.82-2.6A15,15,0,0,0,98.71,23q0-3.73-1-5.33A3,3,0,0,0,95.16,16Z"/><path class="cls-5" d="M122.2,14.8h3.55l-2.34,8.72a68.79,68.79,0,0,0-2.07,8.64,1.06,1.06,0,0,0,.22.73.68.68,0,0,0,.5.24,1.93,1.93,0,0,0,1-.37,30.32,30.32,0,0,0,3.12-2.89l.82.92Q122,36,119.61,36a1.78,1.78,0,0,1-1.36-.61,2.47,2.47,0,0,1-.56-1.73,15.2,15.2,0,0,1,.54-3.47,21.83,21.83,0,0,1-5.48,4.47A7.84,7.84,0,0,1,109,35.93a1.7,1.7,0,0,1-1.37-.58,2.75,2.75,0,0,1-.5-1.82,10.77,10.77,0,0,1,.23-2.1c.21-1.05.76-3.15,1.65-6.32a45.23,45.23,0,0,0,1.67-7.22c0-.47-.17-.7-.5-.7a2.7,2.7,0,0,0-1.22.46,19.6,19.6,0,0,0-2.65,2.24l-1.1-.88a30.54,30.54,0,0,1,5.11-3.93,6.52,6.52,0,0,1,2.83-.93,1.21,1.21,0,0,1,1,.43,2.1,2.1,0,0,1,.37,1.37c0,1.15-.59,4-1.79,8.47a55.11,55.11,0,0,0-1.6,6.92,1.28,1.28,0,0,0,.34.9,1,1,0,0,0,.73.37q1.39,0,4-2.31a10.83,10.83,0,0,0,3.36-5.25Z"/><path class="cls-6" d="M133.46,35.13h-3.72l1.75-6.71q1.27-4.94,2.22-9.38a10.26,10.26,0,0,0,.23-1.37c0-.4-.19-.6-.55-.6a2.48,2.48,0,0,0-1.15.51,22.43,22.43,0,0,0-2.79,2.53l-.78-.87a19,19,0,0,1,4.78-3.86,8.74,8.74,0,0,1,3.65-1.28,1.09,1.09,0,0,1,.71.21.65.65,0,0,1,.26.54,11.08,11.08,0,0,1-.32,1.73l-1.09,4.48a32,32,0,0,1,5.7-6.81,4.34,4.34,0,0,1,2.55-1.35,1.7,1.7,0,0,1,1.25.49,1.53,1.53,0,0,1,.5,1.13,1.56,1.56,0,0,1-.48,1.15,7.42,7.42,0,0,1-2.44,1.12,10.75,10.75,0,0,0-3,1.5A14.09,14.09,0,0,0,138.2,21a14.33,14.33,0,0,0-1.94,3.13,54.14,54.14,0,0,0-1.67,6.2Z"/><path class="cls-7" d="M144.91,20l-.84-.87a25.62,25.62,0,0,1,5.09-4.06,7.28,7.28,0,0,1,3.25-1,1.33,1.33,0,0,1,.82.23.64.64,0,0,1,.3.52,4.62,4.62,0,0,1-.12.8l-1.13,5a30.64,30.64,0,0,1,6.38-5.27A6.83,6.83,0,0,1,162,14.1a1.94,1.94,0,0,1,1.52.62,2.64,2.64,0,0,1,.55,1.8,7.79,7.79,0,0,1-.23,1.74c-.26,1.09-1,3.44-2.08,7.07a29,29,0,0,0-1.6,6.76,1.52,1.52,0,0,0,.15.76.49.49,0,0,0,.43.26c.48,0,1.24-.47,2.27-1.4.73-.66,1.46-1.28,2.19-1.84l.63.89a22.73,22.73,0,0,1-4.77,4.08,5.22,5.22,0,0,1-2.59,1,1.74,1.74,0,0,1-1.47-.69,3.69,3.69,0,0,1-.53-2.23q0-2.22,2.77-11a25.6,25.6,0,0,0,.85-3.67c0-.52-.31-.77-.92-.77a5,5,0,0,0-2.57,1,15.37,15.37,0,0,0-3.92,3.64,11.9,11.9,0,0,0-1.67,4.3l-2,8.72h-3.72c.7-2.5,1.3-4.89,1.82-7.17l2.22-9.49a5,5,0,0,0,.13-.83c0-.45-.17-.67-.5-.67a2.31,2.31,0,0,0-1.15.52A15.84,15.84,0,0,0,144.91,20Z"/><path class="cls-8" d="M184.69,13.72l1.64-.35-1.87,6.32c-.75,2.51-1.45,5.4-2.12,8.68a24.06,24.06,0,0,0-.55,3.44q0,.78.63.78a3,3,0,0,0,1.27-.53,16.41,16.41,0,0,0,3-2.29l.8,1a46.41,46.41,0,0,1-3.65,3.14,12.94,12.94,0,0,1-3,1.62,5.17,5.17,0,0,1-1.85.35,1.44,1.44,0,0,1-1-.29,1.13,1.13,0,0,1-.32-.88,3.45,3.45,0,0,1,.2-1l1-3.39a21.15,21.15,0,0,1-5.11,4.41,6.38,6.38,0,0,1-3.35,1.15,2.63,2.63,0,0,1-2.22-1,5.85,5.85,0,0,1-1-3.6,14.92,14.92,0,0,1,1.41-5.88,21.62,21.62,0,0,1,3.78-5.89,16.08,16.08,0,0,1,5-3.9,12.26,12.26,0,0,1,5.19-.94,12.81,12.81,0,0,1,1.62.1Zm-3.1,3.82a11.87,11.87,0,0,0-2.27-.27,6.46,6.46,0,0,0-3.92,1.23,11.06,11.06,0,0,0-3.1,4.44,15.52,15.52,0,0,0-1.44,6.4,4,4,0,0,0,.58,2.45,1.79,1.79,0,0,0,1.49.75,5.65,5.65,0,0,0,3.7-1.86,11.07,11.07,0,0,0,2.89-5.35Z"/><path class="cls-9" d="M199.51,29.12l.85.9a25.07,25.07,0,0,1-4.61,4,8.44,8.44,0,0,1-4.38,1.81,1.6,1.6,0,0,1-1.27-.59,2.4,2.4,0,0,1-.5-1.61,45.29,45.29,0,0,1,1.55-8.28l2.69-11a46.85,46.85,0,0,1,2.46-8A11.66,11.66,0,0,1,206.65,0a2.5,2.5,0,0,1,1.68.52,1.58,1.58,0,0,1,.61,1.24,1.68,1.68,0,0,1-.6,1.32,2.62,2.62,0,0,1-1.74.51,12.22,12.22,0,0,1-2.11-.25,13.83,13.83,0,0,0-2.21-.2,2.39,2.39,0,0,0-1.55.43,5.34,5.34,0,0,0-1.3,2.5q-.59,1.92-1.9,7.55L195,24.08c-1.23,5.24-1.85,8-1.85,8.21,0,.53.19.79.58.79a3.5,3.5,0,0,0,1.59-.64A25.68,25.68,0,0,0,199.51,29.12Z"/></g></g></svg>