<svg xmlns="http://www.w3.org/2000/svg" viewBox="0 0 120.6 124.41"><defs><style>.cls-1{isolation:isolate;}.cls-2{fill:#141f23;opacity:0.15;}.cls-3{fill:#7e549f;}.cls-11,.cls-4,.cls-5{fill:#e0e0e0;}.cls-4{opacity:0.7;}.cls-11,.cls-4{mix-blend-mode:multiply;}.cls-5{opacity:0.2;mix-blend-mode:screen;}.cls-6{opacity:0.9;}.cls-7{fill:#d4869a;}.cls-8{fill:#383b40;}.cls-9{fill:#d88288;}.cls-10{fill:#d40065;}.cls-11{opacity:0.8;}</style></defs><g class="cls-1"><g id="Layer_2" data-name="Layer 2"><g id="OBJECTS"><ellipse class="cls-2" cx="60.99" cy="111.99" rx="45.48" ry="12.42"/><ellipse class="cls-3" cx="60.3" cy="55.2" rx="60.3" ry="55.2"/><path class="cls-4" d="M14.09,44.62A51.82,51.82,0,0,1,24,14.26C11.87,23.91,4.15,38.13,4.15,54c0,29.08,25.75,52.66,57.52,52.66a60.78,60.78,0,0,0,34-10.21A65.09,65.09,0,0,1,74.57,100C41.17,100,14.09,75.2,14.09,44.62Z"/><path class="cls-5" d="M107.89,65.08A51.84,51.84,0,0,1,98,95.44c12.16-9.66,19.88-23.87,19.88-39.76C117.84,26.59,92.08,3,60.31,3A60.7,60.7,0,0,0,26.37,13.23,65,65,0,0,1,47.42,9.71C80.82,9.71,107.89,34.5,107.89,65.08Z"/><g class="cls-6"><path class="cls-7" d="M21.4,69.47c-3.19-1.59-13.76-.8-14.21,1.42s1,6.3,8.14,5.67S25.88,71.7,21.4,69.47Z"/></g><g class="cls-6"><path class="cls-7" d="M110.57,69.47c-3.19-1.59-13.76-.8-14.21,1.42s1,6.3,8.13,5.67S115.05,71.7,110.57,69.47Z"/></g><path class="cls-8" d="M49.88,67.05a30.05,30.05,0,0,1,10.8-1.82A33.53,33.53,0,0,1,72.1,67S69.75,79.74,60.71,79.75C53.38,79.77,50.38,71.62,49.88,67.05Z"/><path class="cls-9" d="M60.62,71c3.86-.11,8.1,4.08,8.1,4.08a9.75,9.75,0,0,1-8.85,4.6c-5-.39-7.44-5.11-7.44-5.11A12.19,12.19,0,0,1,60.62,71Z"/><path class="cls-10" d="M33.34,51.85A6.61,6.61,0,0,0,22.11,53a.43.43,0,0,1-.78,0A6.61,6.61,0,0,0,10.1,51.85C6.12,57,9.92,66,21.16,71.34a1.39,1.39,0,0,0,1.13,0C33.53,66,37.33,57,33.34,51.85Z"/><path class="cls-11" d="M14.43,51.61a6.9,6.9,0,0,1,4.17-.85,6.81,6.81,0,0,0-5.92.31C9.31,53,8.26,57.52,10.35,61.2a8.11,8.11,0,0,0,3.41,3.27A8.68,8.68,0,0,1,12,62.26C9.78,58.38,10.88,53.61,14.43,51.61Z"/><path class="cls-10" d="M109.14,51.85A6.61,6.61,0,0,0,97.91,53a.43.43,0,0,1-.78,0A6.61,6.61,0,0,0,85.9,51.85C81.92,57,85.72,66,97,71.34a1.39,1.39,0,0,0,1.13,0C109.33,66,113.12,57,109.14,51.85Z"/><path class="cls-11" d="M90.34,51.61a6.92,6.92,0,0,1,4.18-.85,6.81,6.81,0,0,0-5.92.31C85.22,53,84.18,57.52,86.26,61.2a8.07,8.07,0,0,0,3.42,3.27,8.68,8.68,0,0,1-1.79-2.21C85.7,58.38,86.79,53.61,90.34,51.61Z"/></g></g></g></svg>